# xmcd CD database file
#
# Track frame offsets:
#	150
#	23897
#	35511
#	49483
#	61268
#	76747
#	90335
#	112963
#	128395
#	139849
#	153546
#	170484
#	189756
#	214317
#	234064
#	248733
#	278931
#	322660
#
# Disc length: 4535 seconds
#
# Revision: 0
# Processed by: cddbd v1.5.2PL0 Copyright (c) Steve Scherf et al.
# Submitted via: CDex 1.51
#
DISCID=e011b512
DTITLE=Thelonious Monk - Solo 1954-1961 - CD1
DYEAR=2015
DGENRE=Jazz
TTITLE0=Round Midnight
TTITLE1=Eronel
TTITLE2=Reflections (Portrait of an ermite)
TTITLE3=Wee See (Manganese)
TTITLE4=Well, You Needn't
TTITLE5=Hackensack (Well you needn't)
TTITLE6=Evidence (Reflections)
TTITLE7=Smoke Gets In Your Eyes
TTITLE8=Off Minor
TTITLE9=Just A Gigolo
TTITLE10=Solitude
TTITLE11=Memories Of You
TTITLE12=I Surrender, Dear
TTITLE13=(I don't stand) A Ghost Of A Chance
TTITLE14=I Should Care
TTITLE15=Round Midnight
TTITLE16=Functional (take 1 alternate)
TTITLE17=April in Paris
EXTD=YEAR: 2015
EXTT0=
EXTT1=
EXTT2=
EXTT3=
EXTT4=
EXTT5=
EXTT6=
EXTT7=
EXTT8=
EXTT9=
EXTT10=
EXTT11=
EXTT12=
EXTT13=
EXTT14=
EXTT15=
EXTT16=
EXTT17=
PLAYORDER=
